<svg width="16" height="16" viewBox="0 0 16 16" fill="none" xmlns="http://www.w3.org/2000/svg">
<path d="M8 15.5C12.1421 15.5 15.5 12.1421 15.5 8C15.5 3.85786 12.1421 0.5 8 0.5C3.85786 0.5 0.5 3.85786 0.5 8C0.5 12.1421 3.85786 15.5 8 15.5Z" stroke="white" stroke-linecap="round" stroke-linejoin="round"/>
<path d="M10.0841 5.50008C9.66316 5.07578 9.14399 4.79931 8.58894 4.70386C8.03388 4.60841 7.46651 4.69802 6.95492 4.96196C6.44333 5.22589 6.00924 5.65293 5.70474 6.19183C5.40025 6.73072 5.23828 7.35859 5.23828 8.00008C5.23828 8.64157 5.40025 9.26944 5.70474 9.80834C6.00924 10.3472 6.44333 10.7743 6.95492 11.0382C7.46651 11.3021 8.03388 11.3918 8.58894 11.2963C9.14399 11.2009 9.66316 10.9244 10.0841 10.5001" stroke="white" stroke-linecap="round" stroke-linejoin="round"/>
</svg>
