<svg width="20" height="17" viewBox="0 0 20 17" fill="none" xmlns="http://www.w3.org/2000/svg">
<g opacity="0.8">
<path d="M19.1673 0.8501C18.3693 1.42426 17.4857 1.86339 16.5507 2.1506C16.0488 1.56198 15.3818 1.14479 14.6398 0.955437C13.8979 0.766086 13.1169 0.813716 12.4024 1.09189C11.6879 1.37005 11.0744 1.86534 10.6448 2.51076C10.2153 3.15618 9.9904 3.92059 10.0007 4.7006V5.5506C8.53618 5.58933 7.08505 5.25804 5.77649 4.58623C4.46794 3.91442 3.34258 2.92294 2.50065 1.7001C2.50065 1.7001 -0.832682 9.3501 6.66732 12.7501C4.95109 13.9384 2.90661 14.5342 0.833984 14.4501C8.33398 18.7001 17.5006 14.4501 17.5006 4.6751C17.4999 4.43834 17.4776 4.20216 17.434 3.9696C18.2845 3.11407 18.8847 2.03391 19.1673 0.8501V0.8501Z" stroke="white" stroke-width="1.5" stroke-linecap="round" stroke-linejoin="round"/>
</g>
</svg>
