<svg width="20" height="15" viewBox="0 0 20 15" fill="none" xmlns="http://www.w3.org/2000/svg">
<g opacity="0.8">
<path d="M18.7825 2.84992C18.6835 2.45443 18.4819 2.09206 18.1981 1.79942C17.9142 1.50679 17.5581 1.29424 17.1658 1.18325C15.7325 0.833252 9.99917 0.833252 9.99917 0.833252C9.99917 0.833252 4.26584 0.833252 2.83251 1.21659C2.44021 1.32757 2.08416 1.54012 1.8003 1.83276C1.51644 2.1254 1.31483 2.48776 1.21584 2.88325C0.95352 4.33788 0.825204 5.81351 0.832508 7.29159C0.823157 8.78079 0.951481 10.2677 1.21584 11.7333C1.32497 12.1165 1.5311 12.465 1.81429 12.7453C2.09749 13.0256 2.44819 13.2281 2.83251 13.3333C4.26584 13.7166 9.99917 13.7166 9.99917 13.7166C9.99917 13.7166 15.7325 13.7166 17.1658 13.3333C17.5581 13.2223 17.9142 13.0097 18.1981 12.7171C18.4819 12.4244 18.6835 12.0621 18.7825 11.6666C19.0428 10.2229 19.1711 8.75853 19.1658 7.29159C19.1752 5.80238 19.0469 4.3155 18.7825 2.84992V2.84992Z" stroke="white" stroke-width="1.5" stroke-linecap="round" stroke-linejoin="round"/>
<path d="M8.125 10.0167L12.9167 7.29165L8.125 4.56665V10.0167Z" stroke="white" stroke-width="1.5" stroke-linecap="round" stroke-linejoin="round"/>
</g>
</svg>
